<svg width="23" height="23" viewBox="0 0 23 23" fill="none" xmlns="http://www.w3.org/2000/svg">
<path d="M6.25291 15.8714C7.03339 15.2746 7.9057 14.804 8.86983 14.4597C9.83395 14.1153 10.844 13.9432 11.8999 13.9432C12.9559 13.9432 13.9659 14.1153 14.9301 14.4597C15.8942 14.804 16.7665 15.2746 17.547 15.8714C18.0826 15.244 18.4996 14.5324 18.798 13.7366C19.0965 12.9408 19.2457 12.0914 19.2457 11.1885C19.2457 9.15314 18.5302 7.42 17.0993 5.98911C15.6685 4.55823 13.9353 3.84278 11.8999 3.84278C9.86456 3.84278 8.13143 4.55823 6.70054 5.98911C5.26965 7.42 4.55421 9.15314 4.55421 11.1885C4.55421 12.0914 4.70342 12.9408 5.00184 13.7366C5.30026 14.5324 5.71728 15.244 6.25291 15.8714ZM11.8999 12.1067C10.997 12.1067 10.2357 11.7968 9.61588 11.177C8.99608 10.5572 8.68618 9.79589 8.68618 8.89297C8.68618 7.99006 8.99608 7.22871 9.61588 6.60891C10.2357 5.98911 10.997 5.67921 11.8999 5.67921C12.8029 5.67921 13.5642 5.98911 14.184 6.60891C14.8038 7.22871 15.1137 7.99006 15.1137 8.89297C15.1137 9.79589 14.8038 10.5572 14.184 11.177C13.5642 11.7968 12.8029 12.1067 11.8999 12.1067ZM11.8999 20.3707C10.6297 20.3707 9.43606 20.1297 8.3189 19.6476C7.20173 19.1655 6.22995 18.5113 5.40356 17.6849C4.57716 16.8585 3.92293 15.8867 3.44087 14.7696C2.95881 13.6524 2.71777 12.4587 2.71777 11.1885C2.71777 9.91832 2.95881 8.72463 3.44087 7.60747C3.92293 6.49031 4.57716 5.51853 5.40356 4.69213C6.22995 3.86574 7.20173 3.21151 8.3189 2.72944C9.43606 2.24738 10.6297 2.00635 11.8999 2.00635C13.1701 2.00635 14.3638 2.24738 15.481 2.72944C16.5982 3.21151 17.5699 3.86574 18.3963 4.69213C19.2227 5.51853 19.8769 6.49031 20.359 7.60747C20.8411 8.72463 21.0821 9.91832 21.0821 11.1885C21.0821 12.4587 20.8411 13.6524 20.359 14.7696C19.8769 15.8867 19.2227 16.8585 18.3963 17.6849C17.5699 18.5113 16.5982 19.1655 15.481 19.6476C14.3638 20.1297 13.1701 20.3707 11.8999 20.3707Z" fill="#7F8CAA"/>
</svg>
