<svg width="24" height="13" viewBox="0 0 24 13" fill="none" xmlns="http://www.w3.org/2000/svg">
<g clip-path="url(#clip0_615_545)">
<path opacity="0.4" d="M2.864 1C2.21628 1.01599 1.60132 1.28812 1.15388 1.75673C0.706447 2.22535 0.463038 2.85223 0.476999 3.5V9.5C0.463036 10.1476 0.706308 10.7743 1.15353 11.2429C1.60075 11.7115 2.21545 11.9837 2.863 12H18.136C18.7837 11.984 19.3987 11.7119 19.8461 11.2433C20.2935 10.7747 20.537 10.1478 20.523 9.5V3.5C20.537 2.85223 20.2935 2.22535 19.8461 1.75673C19.3987 1.28812 18.7837 1.01599 18.136 1H2.864ZM2.864 0.5H18.136C18.9135 0.518353 19.6519 0.844655 20.189 1.40719C20.726 1.96973 21.0177 2.72248 21 3.5V9.5C21.0177 10.2775 20.726 11.0303 20.189 11.5928C19.6519 12.1553 18.9135 12.4816 18.136 12.5H2.864C2.08649 12.4816 1.34808 12.1553 0.811041 11.5928C0.274005 11.0303 -0.0177125 10.2775 -1.08994e-06 9.5V3.5C-0.0177125 2.72248 0.274005 1.96973 0.811041 1.40719C1.34808 0.844655 2.08649 0.518353 2.864 0.5V0.5Z" fill="white"/>
<rect x="2" y="2.5" width="17" height="8" rx="1" fill="white"/>
<path opacity="0.4" d="M22 4.5C22.5304 4.5 23.0391 4.71071 23.4142 5.08579C23.7893 5.46086 24 5.96957 24 6.5C24 7.03043 23.7893 7.53914 23.4142 7.91421C23.0391 8.28929 22.5304 8.5 22 8.5V4.5Z" fill="white"/>
</g>
<defs>
<clipPath id="clip0_615_545">
<rect width="24" height="12" fill="white" transform="translate(0 0.5)"/>
</clipPath>
</defs>
</svg>
